<svg width="262" height="70" viewBox="0 0 262 70" fill="none" xmlns="http://www.w3.org/2000/svg">
<path d="M2.38522 68.8058C1.22317 68.8058 0.642141 67.766 0.642141 65.6866L0.733881 63.3013L0.550399 58.7142L0.458658 54.5859L0.366917 51.8337C0.122275 48.6533 -4.6672e-05 45.0448 -4.6672e-05 41.0082C-4.6672e-05 38.623 0.122275 35.4732 0.366917 31.5589C0.61156 27.6446 0.733881 24.4337 0.733881 21.9261L0.642141 9.63281C0.58098 8.65424 0.550399 7.55335 0.550399 6.33014C0.550399 5.65737 0.978524 5.25983 1.83477 5.13751C2.75218 4.95402 3.70017 4.89286 4.67874 4.95402C5.65731 4.95402 6.33008 4.95402 6.69705 4.95402L9.99972 4.77054C12.5685 4.64822 14.6479 4.58706 16.2381 4.58706C19.9689 4.58706 23.9444 5.59621 28.1644 7.61451C32.3845 9.57165 36.0847 13.1801 39.2651 18.44C42.4455 23.6998 44.0356 30.8556 44.0356 39.9073C44.0356 48.164 42.0479 54.433 38.0725 58.7142C34.1582 62.9343 30.0298 65.656 25.6874 66.8792C21.345 68.0412 17.7365 68.6223 14.862 68.6223L7.33923 68.714C5.9937 68.7752 4.34236 68.8058 2.38522 68.8058ZM16.4216 49.1732C18.0729 48.3781 19.6019 47.2772 21.0086 45.8705C24.0667 42.9348 25.5957 39.4486 25.5957 35.412C25.5957 31.5589 24.1278 28.4703 21.1921 26.1462C19.9077 25.1676 18.4705 24.4337 16.8803 23.9444C17.0026 25.2899 17.0638 26.3297 17.0638 27.0636C17.0638 28.2257 17.0026 29.9076 16.8803 32.1094C16.758 34.1888 16.6968 35.7178 16.6968 36.6964C16.6968 38.2866 16.6357 40.8553 16.5133 44.4027C16.4522 45.4424 16.4216 47.0326 16.4216 49.1732ZM206.999 69.1727C204.063 69.1727 201.862 68.8363 200.394 68.1636C198.987 67.4296 198.039 66.4205 197.55 65.1361C197.122 63.7906 196.908 62.0169 196.908 59.8151L196.999 53.9437C197.061 52.904 197.091 51.1609 197.091 48.7145L196.999 37.9808C196.938 37.0634 196.908 36.0848 196.908 35.0451V32.2928V20.917V17.2473C196.908 15.0455 196.938 13.333 196.999 12.1098L197.091 8.62366V4.6788C197.03 3.21094 197.122 2.23237 197.366 1.74309C197.672 1.19265 198.1 0.917422 198.651 0.917422C198.957 0.917422 199.201 0.948002 199.385 1.00916C199.874 1.07032 200.394 1.1009 200.944 1.1009C201.556 1.03974 202.106 1.00916 202.596 1.00916H204.889C206.479 1.00916 207.58 1.03974 208.192 1.1009C208.865 1.16206 209.323 1.31496 209.568 1.55961C209.874 1.80425 210.027 2.17121 210.027 2.6605C210.027 2.84398 209.965 3.54733 209.843 4.77054C209.293 9.23527 209.048 14.8009 209.109 21.4674C209.048 22.5683 209.017 23.5163 209.017 24.3114C209.079 25.1065 209.109 25.7792 209.109 26.3297V28.8067C209.17 30.3357 209.201 32.4763 209.201 35.2286L209.109 43.3018L209.293 49.1732C209.354 50.641 209.415 52.323 209.476 54.2189C209.537 56.1149 209.568 57.9192 209.568 59.6317V61.4665C209.568 62.2616 210.241 62.6591 211.586 62.6591C212.198 62.6591 212.718 62.5674 213.146 62.3839C213.635 62.2004 213.971 62.1087 214.155 62.1087C214.644 62.1087 215.042 62.5368 215.348 63.393C215.592 64.3104 215.898 65.075 216.265 65.6866C216.326 65.7477 216.357 65.8395 216.357 65.9618C216.357 66.2064 216.204 66.4817 215.898 66.7875C214.675 67.8883 213.452 68.5611 212.228 68.8058C211.005 69.0504 209.262 69.1727 206.999 69.1727Z" fill="#29AFE3"/>
<path d="M64.7827 69.8149C60.318 69.8149 56.7401 68.9281 54.049 67.1544C51.3579 65.3808 50.0124 62.231 50.0124 57.7051C50.3182 54.7694 52.4894 52.5982 56.526 51.1915C60.5626 49.7848 65.0885 49.0814 70.1037 49.0814C71.6939 49.0814 73.5898 48.9591 75.7916 48.7145C77.9934 48.4698 80.0117 48.3475 81.8465 48.3475C81.6019 41.7422 81.1738 36.5741 80.5622 32.8433C80.0117 29.0513 79.0331 26.2074 77.6265 24.3114C76.2809 22.4154 74.3544 21.4674 71.8468 21.4674C70.0119 21.4674 68.2689 21.8955 66.6175 22.7518C64.9662 23.608 62.9173 24.9536 60.4709 26.7884C58.4526 28.2562 57.4434 28.9902 57.4434 28.9902C57.3823 28.9902 57.1682 29.1125 56.8012 29.3571C56.4954 29.5406 56.1896 29.6018 55.8838 29.5406C55.3334 29.4183 55.0582 29.1431 55.0582 28.7149C54.8135 28.348 54.5077 27.5223 54.1408 26.2379C53.835 24.9536 53.6821 24.0362 53.6821 23.4857C53.6821 23.1187 54.049 22.6906 54.7829 22.2013C57.9021 19.8772 60.532 18.1647 62.6727 17.0638C64.8745 15.9018 66.7399 15.1679 68.2689 14.8621C69.859 14.5562 71.6939 14.4033 73.7733 14.4033C79.8894 14.4033 83.9872 16.3911 86.0666 20.3665C88.2072 24.2808 89.2776 29.51 89.2776 36.0542C89.2776 37.7667 89.2164 40.0908 89.0941 43.0265C89.0941 44.8002 88.9718 47.3995 88.7271 50.8245L88.6354 53.0263L88.7271 58.439C88.8494 60.8854 88.9106 62.7508 88.9106 64.0352L88.8189 66.7875C88.6965 68.1941 88.1461 68.8975 87.1675 68.8975L86.4336 68.8058H82.6722C82.4276 68.8058 82.1829 68.714 81.9383 68.5305C81.7548 68.2859 81.6631 68.0107 81.6631 67.7049V66.9709C77.9934 68.0107 75.0577 68.7446 72.8559 69.1727C70.6541 69.6008 67.9631 69.8149 64.7827 69.8149ZM64.8745 64.5857C71.4186 64.5857 77.0148 63.4848 81.6631 61.283L81.9383 52.7511C79.0637 52.5064 76.5867 52.3841 74.5073 52.3841L69.0945 52.4759C66.1588 52.4759 63.5289 53.0569 61.2048 54.2189C58.8807 55.3198 57.6269 56.8794 57.4434 58.8977C57.4434 61.0995 57.9633 62.5979 59.003 63.393C60.0428 64.1881 61.9999 64.5857 64.8745 64.5857ZM242.652 69.8149C233.906 69.8149 227.912 67.185 224.671 61.9252C221.429 56.6654 219.808 49.6013 219.808 40.733C219.808 36.146 220.756 31.8036 222.652 27.7058C224.61 23.5469 227.24 20.2136 230.542 17.706C233.906 15.1984 237.606 13.9446 241.643 13.9446C246.536 13.9446 250.481 15.596 253.477 18.8987C256.474 22.2013 258.584 26.3908 259.808 31.4672C261.092 36.4823 261.734 41.7727 261.734 47.3384C261.795 47.7665 261.642 48.0417 261.275 48.164C260.908 48.2864 260.175 48.3475 259.074 48.3475C257.116 48.2252 255.526 48.164 254.303 48.164C252.285 48.164 249.624 48.2252 246.322 48.3475L243.936 48.4393H240.817C236.475 48.4393 233.661 48.4087 232.377 48.3475C229.441 48.3475 227.301 48.3169 225.955 48.2558C226.322 53.7602 227.821 57.9192 230.45 60.7325C233.142 63.4848 237.086 64.8609 242.285 64.8609C245.037 64.8609 247.759 64.127 250.45 62.6591C253.141 61.1301 255.068 59.2341 256.23 56.9712C256.291 56.91 256.383 56.8794 256.505 56.8794C256.811 56.8794 257.178 57.0935 257.606 57.5216C258.095 57.8886 258.462 58.1638 258.707 58.3473C259.379 58.7754 259.869 59.1118 260.175 59.3564C260.48 59.6011 260.664 59.9375 260.725 60.3656C259.012 62.8732 256.474 65.075 253.11 66.9709C249.808 68.8669 246.322 69.8149 242.652 69.8149ZM245.037 42.6596C246.689 42.6596 248.309 42.629 249.9 42.5678C251.551 42.4455 253.569 42.262 255.954 42.0174C255.282 35.779 253.844 30.3969 251.643 25.871C249.502 21.3451 246.719 19.0821 243.294 19.0821C240.358 19.0821 237.606 20.1219 235.038 22.2013C232.469 24.2196 230.359 27.0024 228.707 30.5498C227.056 34.0971 226.108 38.0725 225.863 42.4761C226.292 42.4761 226.873 42.5067 227.606 42.5678C228.34 42.5678 229.38 42.5373 230.726 42.4761L245.037 42.6596Z" fill="#EB1B49"/>
<path d="M103.889 68.8975C103.156 68.8975 102.636 68.5917 102.33 67.9801C102.085 67.3073 101.963 66.4205 101.963 65.3196L102.055 47.6136V43.9439L101.963 39.9991C101.963 38.4701 102.055 36.0236 102.238 32.6598C102.36 29.1125 102.452 25.1982 102.513 20.917C102.636 16.6357 102.697 13.2107 102.697 10.642L102.605 5.41273C102.544 4.49532 102.513 3.27211 102.513 1.74309V1.28438C102.513 0.733935 102.727 0.397553 103.156 0.275233C103.278 0.214073 103.614 0.183493 104.165 0.183493C106.856 0.183493 108.538 0.152913 109.21 0.0917532C109.639 0.0305896 109.944 0.214071 110.128 0.642197C110.311 1.07032 110.403 1.83483 110.403 2.93572C110.403 4.03661 110.311 5.1375 110.128 6.2384C109.883 8.19554 109.761 10.1527 109.761 12.1098C109.761 14.9844 109.791 17.0638 109.853 18.3482C111.198 17.9201 112.941 17.4614 115.082 16.9721C117.284 16.4828 118.966 16.2382 120.128 16.2382C123.369 16.2382 126.244 16.7886 128.751 17.8895C131.014 18.9292 132.88 20.4888 134.347 22.5683C137.467 26.6661 139.026 32.8127 139.026 41.0082C139.026 49.8765 137.467 56.4207 134.347 60.6408C131.228 64.8609 126.427 66.9709 119.944 66.9709C118.476 66.9709 116.733 66.7569 114.715 66.3287C112.758 65.9006 111.29 65.5031 110.311 65.1361V66.4205V66.8792C110.311 68.1636 109.883 68.8058 109.027 68.8058C107.987 68.7446 106.947 68.7446 105.908 68.8058C104.929 68.8669 104.256 68.8975 103.889 68.8975ZM116.366 59.8151C120.77 59.8151 124.103 58.3473 126.366 55.4116C128.629 52.4147 129.76 47.7053 129.76 41.2835C129.76 37.9808 129.241 35.0757 128.201 32.5681C127.161 29.9993 125.724 28.0422 123.889 26.6966C122.115 25.2899 120.128 24.5866 117.926 24.5866C117.192 24.5866 115.846 24.8924 113.889 25.504C111.932 26.0545 110.587 26.5437 109.853 26.9719L110.22 58.5308C111.076 58.7754 112.177 59.0506 113.522 59.3564C114.929 59.6622 115.877 59.8151 116.366 59.8151Z" fill="#F493A9"/>
<path d="M169.365 14.2199C175.786 14.2199 180.496 16.7886 183.493 21.9261C186.551 27.0636 188.08 33.5772 188.08 41.4669C188.08 44.6473 187.652 48.3781 186.795 52.6593C185.939 56.8794 184.135 60.7937 181.383 64.4022C178.63 68.0107 174.624 69.8149 169.365 69.8149C164.961 69.8149 161.2 68.7446 158.08 66.604V67.2462V67.7966C158.08 68.2247 158.019 68.5305 157.897 68.714C157.836 68.8975 157.622 68.9892 157.255 68.9892C157.255 68.9281 157.01 68.8669 156.521 68.8058C156.032 68.8058 155.42 68.8058 154.686 68.8058C153.646 68.8058 152.729 68.8363 151.934 68.8975C151.2 68.9587 150.711 68.9892 150.466 68.9892H150.099C149.793 68.9892 149.549 68.9281 149.365 68.8058C149.182 68.6223 149.09 68.3165 149.09 67.8883L149.273 64.4939L149.457 60.6408L149.64 36.7881C149.701 35.9931 149.732 34.9227 149.732 33.5772V28.6232C149.732 26.4214 149.579 22.3542 149.273 16.4216L148.906 5.77969C148.906 4.55648 148.906 3.70023 148.906 3.21094C148.967 2.6605 148.998 2.29353 148.998 2.11005C148.998 1.74309 149.059 1.46786 149.182 1.28438C149.365 1.1009 149.701 1.00916 150.191 1.00916L155.787 0.917422C156.032 0.917422 156.276 0.886841 156.521 0.825677C156.827 0.764517 157.132 0.733937 157.438 0.733937C157.928 0.733937 158.172 0.948 158.172 1.37613L158.264 7.33929L158.356 17.0638C161.597 15.1679 165.267 14.2199 169.365 14.2199ZM168.998 60.4573C172.851 60.4573 175.939 58.8366 178.263 55.5951C180.588 52.3535 181.75 47.6442 181.75 41.4669C181.75 35.9625 180.557 32.0482 178.172 29.7241C175.848 27.3388 173.095 26.1462 169.915 26.1462C167.774 26.1462 165.634 26.6049 163.493 27.5223C161.414 28.4397 159.701 29.7241 158.356 31.3754V31.7424C158.356 34.3723 158.325 36.2989 158.264 37.5221C158.203 38.623 158.172 39.9685 158.172 41.5587V53.6685C159.273 55.748 160.71 57.3993 162.484 58.6225C164.319 59.8457 166.49 60.4573 168.998 60.4573Z" fill="#6DC14E"/>
</svg>
